<svg width="24" height="30" viewBox="0 0 24 30" fill="none" xmlns="http://www.w3.org/2000/svg">
<mask id="mask0_7_283" style="mask-type:alpha" maskUnits="userSpaceOnUse" x="3" y="2" width="18" height="26">
<path fill-rule="evenodd" clip-rule="evenodd" d="M19 5H14.82C14.4 3.55 13.3 2.5 12 2.5C10.7 2.5 9.6 3.55 9.18 5H5C3.9 5 3 6.125 3 7.5V25C3 26.375 3.9 27.5 5 27.5H19C20.1 27.5 21 26.375 21 25V7.5C21 6.125 20.1 5 19 5ZM12 5C12.55 5 13 5.5625 13 6.25C13 6.9375 12.55 7.5 12 7.5C11.45 7.5 11 6.9375 11 6.25C11 5.5625 11.45 5 12 5ZM8 22.5H13C13.55 22.5 14 21.9375 14 21.25C14 20.5625 13.55 20 13 20H8C7.45 20 7 20.5625 7 21.25C7 21.9375 7.45 22.5 8 22.5ZM16 17.5H8C7.45 17.5 7 16.9375 7 16.25C7 15.5625 7.45 15 8 15H16C16.55 15 17 15.5625 17 16.25C17 16.9375 16.55 17.5 16 17.5ZM8 12.5H16C16.55 12.5 17 11.9375 17 11.25C17 10.5625 16.55 10 16 10H8C7.45 10 7 10.5625 7 11.25C7 11.9375 7.45 12.5 8 12.5Z" fill="black"/>
</mask>
<g mask="url(#mask0_7_283)">
<rect width="24" height="30" fill="#D969DC"/>
</g>
</svg>
