<svg width="37" height="33" viewBox="0 0 37 33" fill="none" xmlns="http://www.w3.org/2000/svg">
<mask id="mask0_9_380" style="mask-type:alpha" maskUnits="userSpaceOnUse" x="4" y="2" width="29" height="29">
<path fill-rule="evenodd" clip-rule="evenodd" d="M29.2917 5.5H27.75V4.125C27.75 3.36875 27.0562 2.75 26.2083 2.75C25.3604 2.75 24.6667 3.36875 24.6667 4.125V5.5H12.3333V4.125C12.3333 3.36875 11.6396 2.75 10.7917 2.75C9.94375 2.75 9.25 3.36875 9.25 4.125V5.5H7.70833C5.99708 5.5 4.64042 6.7375 4.64042 8.25L4.625 27.5C4.625 29.0125 5.99708 30.25 7.70833 30.25H29.2917C30.9875 30.25 32.375 29.0125 32.375 27.5V8.25C32.375 6.7375 30.9875 5.5 29.2917 5.5ZM24.6667 15.8538C24.2196 15.455 23.4796 15.455 23.0325 15.8538L16.3263 21.835L13.875 19.6488C13.4279 19.25 12.6879 19.25 12.2408 19.6488C11.7937 20.0475 11.7937 20.7075 12.2408 21.1063L15.2317 23.7738C15.8329 24.31 16.8042 24.31 17.4054 23.7738L24.6513 17.3112C25.1138 16.9125 25.1138 16.2525 24.6667 15.8538ZM9.25 27.5H27.75C28.5979 27.5 29.2917 26.8813 29.2917 26.125V12.375H7.70833V26.125C7.70833 26.8813 8.40208 27.5 9.25 27.5Z" fill="black"/>
</mask>
<g mask="url(#mask0_9_380)">
<rect width="37" height="33" fill="#D969DC"/>
</g>
</svg>
