<svg width="31" height="27" viewBox="0 0 31 27" fill="none" xmlns="http://www.w3.org/2000/svg">
<mask id="mask0_7_303" style="mask-type:alpha" maskUnits="userSpaceOnUse" x="1" y="5" width="29" height="17">
<path fill-rule="evenodd" clip-rule="evenodd" d="M14.1955 9C14.1955 10.8675 12.4776 12.375 10.3334 12.375C8.18925 12.375 6.45842 10.8675 6.45842 9C6.45842 7.1325 8.18925 5.625 10.3334 5.625C12.4776 5.625 14.1955 7.1325 14.1955 9ZM24.5288 9C24.5288 10.8675 22.8109 12.375 20.6667 12.375C18.5226 12.375 16.7917 10.8675 16.7917 9C16.7917 7.1325 18.5226 5.625 20.6667 5.625C22.8109 5.625 24.5288 7.1325 24.5288 9ZM10.3334 14.625C7.32383 14.625 1.29175 15.9412 1.29175 18.5625V20.25C1.29175 20.8687 1.873 21.375 2.58341 21.375H18.0834C18.7938 21.375 19.3751 20.8687 19.3751 20.25V18.5625C19.3751 15.9412 13.343 14.625 10.3334 14.625ZM19.4138 14.6812C19.8659 14.6475 20.2922 14.625 20.6667 14.625C23.6763 14.625 29.7084 15.9412 29.7084 18.5625V20.25C29.7084 20.8687 29.1272 21.375 28.4167 21.375H21.7259C21.868 21.0262 21.9584 20.6438 21.9584 20.25V18.5625C21.9584 16.9087 20.938 15.66 19.4655 14.7262C19.4616 14.7228 19.4577 14.7184 19.4534 14.7136C19.4436 14.7024 19.4318 14.6891 19.4138 14.6812Z" fill="black"/>
</mask>
<g mask="url(#mask0_7_303)">
<rect width="31" height="27" fill="#D969DC"/>
</g>
</svg>
