<svg width="38" height="32" viewBox="0 0 38 32" fill="none" xmlns="http://www.w3.org/2000/svg">
<mask id="mask0_9_408" style="mask-type:alpha" maskUnits="userSpaceOnUse" x="15" y="4" width="8" height="24">
<path fill-rule="evenodd" clip-rule="evenodd" d="M15.8333 6.66667C15.8333 5.2 17.2583 4 18.9999 4C20.7416 4 22.1666 5.2 22.1666 6.66667V17.3333C22.1666 18.8 20.7416 20 18.9999 20C17.2583 20 15.8333 18.8 15.8333 17.3333V6.66667ZM15.8333 25.3333C15.8333 23.8606 17.251 22.6667 18.9999 22.6667C20.7488 22.6667 22.1666 23.8606 22.1666 25.3333C22.1666 26.8061 20.7488 28 18.9999 28C17.251 28 15.8333 26.8061 15.8333 25.3333Z" fill="black"/>
</mask>
<g mask="url(#mask0_9_408)">
<rect width="38" height="32" fill="#D969DC"/>
</g>
</svg>
